<svg id="visual" viewBox="0 0 960 540" width="960" height="540" xmlns="http://www.w3.org/2000/svg" xmlns:xlink="http://www.w3.org/1999/xlink" version="1.1">
    <rect x="0" y="0" width="960" height="540" fill="#f2f2f2"></rect>
    <path d="M0 329L22.8 330.8C45.7 332.7 91.3 336.3 137 346.5C182.7 356.7 228.3 373.3 274 371.7C319.7 370 365.3 350 411.2 339.3C457 328.7 503 327.3 548.8 331.3C594.7 335.3 640.3 344.7 686 356.7C731.7 368.7 777.3 383.3 823 384.5C868.7 385.7 914.3 373.3 937.2 367.2L960 361L960 541L937.2 541C914.3 541 868.7 541 823 541C777.3 541 731.7 541 686 541C640.3 541 594.7 541 548.8 541C503 541 457 541 411.2 541C365.3 541 319.7 541 274 541C228.3 541 182.7 541 137 541C91.3 541 45.7 541 22.8 541L0 541Z" fill="#3453d1"></path>
    <path d="M0 407L22.8 402C45.7 397 91.3 387 137 380.7C182.7 374.3 228.3 371.7 274 380C319.7 388.3 365.3 407.7 411.2 411.8C457 416 503 405 548.8 405.7C594.7 406.3 640.3 418.7 686 424.7C731.7 430.7 777.3 430.3 823 421C868.7 411.7 914.3 393.3 937.2 384.2L960 375L960 541L937.2 541C914.3 541 868.7 541 823 541C777.3 541 731.7 541 686 541C640.3 541 594.7 541 548.8 541C503 541 457 541 411.2 541C365.3 541 319.7 541 274 541C228.3 541 182.7 541 137 541C91.3 541 45.7 541 22.8 541L0 541Z" fill="#1c41a5"></path>
    <path d="M0 434L22.8 434.8C45.7 435.7 91.3 437.3 137 440.2C182.7 443 228.3 447 274 444C319.7 441 365.3 431 411.2 432.5C457 434 503 447 548.8 443.8C594.7 440.7 640.3 421.3 686 412.2C731.7 403 777.3 404 823 407.5C868.7 411 914.3 417 937.2 420L960 423L960 541L937.2 541C914.3 541 868.7 541 823 541C777.3 541 731.7 541 686 541C640.3 541 594.7 541 548.8 541C503 541 457 541 411.2 541C365.3 541 319.7 541 274 541C228.3 541 182.7 541 137 541C91.3 541 45.7 541 22.8 541L0 541Z" fill="#072f7a"></path>
    <path d="M0 472L22.8 471C45.7 470 91.3 468 137 469C182.7 470 228.3 474 274 477C319.7 480 365.3 482 411.2 479.2C457 476.3 503 468.7 548.8 465.5C594.7 462.3 640.3 463.7 686 459.8C731.7 456 777.3 447 823 444.3C868.7 441.7 914.3 445.3 937.2 447.2L960 449L960 541L937.2 541C914.3 541 868.7 541 823 541C777.3 541 731.7 541 686 541C640.3 541 594.7 541 548.8 541C503 541 457 541 411.2 541C365.3 541 319.7 541 274 541C228.3 541 182.7 541 137 541C91.3 541 45.7 541 22.8 541L0 541Z" fill="#001e51"></path>
    <path d="M0 473L22.8 480.2C45.7 487.3 91.3 501.7 137 504.2C182.7 506.7 228.3 497.3 274 492C319.7 486.7 365.3 485.3 411.2 484.3C457 483.3 503 482.7 548.8 484C594.7 485.3 640.3 488.7 686 487.5C731.7 486.3 777.3 480.7 823 480.3C868.7 480 914.3 485 937.2 487.5L960 490L960 541L937.2 541C914.3 541 868.7 541 823 541C777.3 541 731.7 541 686 541C640.3 541 594.7 541 548.8 541C503 541 457 541 411.2 541C365.3 541 319.7 541 274 541C228.3 541 182.7 541 137 541C91.3 541 45.7 541 22.8 541L0 541Z" fill="#00092c"></path>
</svg>